<svg width="29" height="30" viewBox="0 0 29 30" fill="none" xmlns="http://www.w3.org/2000/svg">
<path d="M19.7909 1.82745C18.1099 1.13568 16.2685 0.75415 14.338 0.75415C6.41934 0.754151 -3.46135e-07 7.17349 0 15.0921C9.48432e-08 17.2619 0.48196 19.3191 1.34466 21.1625H10.5733C9.23176 20.394 8.17437 19.4108 7.40108 18.213C6.47252 16.7746 6.00825 15.0996 6.00825 13.1878C6.00825 11.1305 6.56356 9.24604 7.67418 7.53459C8.7666 5.80493 10.3324 4.4212 12.3716 3.3834C14.4108 2.3456 16.8232 1.8267 19.6088 1.8267C19.6697 1.8267 19.7304 1.82695 19.7909 1.82745Z" fill="#FAAE1B"/>
<path d="M27.1525 8.65345C26.5316 8.11459 25.8014 7.6506 24.9617 7.26148C23.4687 6.55141 21.6844 6.19638 19.6088 6.19638C17.5697 6.19638 15.8218 6.54231 14.3652 7.23417C12.8905 7.92604 11.7616 8.86369 10.9787 10.0471C10.1776 11.2124 9.77709 12.5142 9.77709 13.9525C9.77709 15.1906 10.0866 16.365 10.7056 17.4756C11.3065 18.568 12.1986 19.4601 13.3821 20.152C14.5655 20.8257 16.0221 21.1625 17.7517 21.1625H21.6298C23.3231 21.1625 24.7705 20.8166 25.9722 20.1247C26.9996 19.5083 27.8143 18.7409 28.4163 17.8226C28.5867 16.9386 28.676 16.0258 28.676 15.0921C28.676 12.7767 28.1271 10.5895 27.1525 8.65345Z" fill="#FAAE1B"/>
<path d="M24.2805 25.4229H4.39549C6.97321 27.9044 10.4774 29.4301 14.338 29.4301C18.1986 29.4301 21.7028 27.9044 24.2805 25.4229Z" fill="#FAAE1B"/>
</svg>
